# xmcd CD database file
#
# Track frame offsets:
#	150
#	16131
#	28893
#	42052
#	58144
#	80710
#	95531
#	113432
#	126787
#	147217
#	159840
#	174124
#
# Disc length: 2536 seconds
#
# Revision: 0
# Processed by: cddbd v1.5.2PL0 Copyright (c) Steve Scherf et al.
# Submitted via: CDex 1.51
#
DISCID=8d09e60c
DTITLE=WORKSHOP 70 - GET UP AND DANCE nr.70
DYEAR=2009
DGENRE=Country
TTITLE0=Dee Musk - Swingin' Doors
TTITLE1=Rep Ghazali - Cowboy On The Run
TTITLE2=Kate Sala and Robbie McGowan Hickie - Go Mama Go
TTITLE3=Gaye Teather - It's America
TTITLE4=Maggie Gallagher  - Thank You
TTITLE5=Chatti The Valley  - Cucci Cucci Man
TTITLE6=Max Perry  - Thats Right Mambo
TTITLE7=Sandy Nelson - Shenandoah Scottische
TTITLE8=Francien Sittrop - A Miracle
TTITLE9=Kim Ray - Imelda's Man
TTITLE10=Kate Sala and Sharon Newey - Anything Goes
TTITLE11=Little Jo - Like A Hobo
EXTD=YEAR: 2009
EXTT0=
EXTT1=
EXTT2=
EXTT3=
EXTT4=
EXTT5=
EXTT6=
EXTT7=
EXTT8=
EXTT9=
EXTT10=
EXTT11=
PLAYORDER=
